<?xml version="1.0" encoding="utf-8"?>
<!-- Generator: Adobe Illustrator 16.0.0, SVG Export Plug-In . SVG Version: 6.00 Build 0)  -->
<!DOCTYPE svg PUBLIC "-//W3C//DTD SVG 1.1//EN" "http://www.w3.org/Graphics/SVG/1.1/DTD/svg11.dtd">
<svg version="1.1" id="Layer_1" xmlns="http://www.w3.org/2000/svg" xmlns:xlink="http://www.w3.org/1999/xlink" x="0px" y="0px"
	 width="250px" height="250px" viewBox="0 0 250 250" enable-background="new 0 0 250 250" xml:space="preserve">
<g>
	<path fill="#96aaff" fill-rule="evenodd" clip-rule="evenodd" d="M245.6,103.45c-6.79-36.46-26.189-64.35-57.68-83.74
		c-16.2-9.97-33.99-15.42-52.979-16.84c-0.62-0.05-1.23-0.26-1.841-0.39h-15.25c-4.39,0.6-8.79,1.08-13.15,1.84
		C76.45,9.24,52.84,22.56,33.89,43.99C16.65,63.47,6.87,86.32,4.05,112.16c-0.17,1.57-0.38,3.13-0.57,4.69v15.25
		c0.62,4.551,1.07,9.12,1.89,13.631c5.41,29.77,19.93,54.239,43.25,73.409c17.58,14.45,37.79,23.03,60.3,26.23
		c2.97,0.42,5.95,0.74,8.93,1.11h15.25c4.54-0.62,9.12-1.07,13.62-1.891c29.761-5.42,54.261-19.91,73.42-43.25
		c15.4-18.77,24.141-40.42,26.75-64.55c0.17-1.56,0.391-3.12,0.591-4.69v-15.25C246.86,112.38,246.43,107.88,245.6,103.45z
		 M194.98,154.45c-0.23,10.08-3.07,19.41-10.051,27.09c-7.76,8.53-17.81,12.2-28.949,12.39c-20.32,0.34-40.661,0.4-60.971-0.01
		c-13.25-0.27-24.63-5.2-32.34-16.65c-4.52-6.72-6.58-14.34-6.67-22.289c-0.23-20.32-0.38-40.65,0.03-60.971
		c0.27-13.25,5.19-24.63,16.65-32.34c6.86-4.61,14.64-6.51,22.76-6.7c10.08-0.25,20.17-0.06,30.25-0.06c0-0.28,0.01-0.57,0.01-0.85
		c11.5,0.43,23.04,0.44,34.49,1.39c18.96,1.58,32.479,15.31,34.369,34.24c0.49,4.9,0.851,9.83,0.851,14.74
		C195.39,121.1,195.36,137.78,194.98,154.45z"/>
	<path fill="#96aaff" fill-rule="evenodd" clip-rule="evenodd" d="M182.08,92.73c-0.4-14.82-10.03-24.4-24.85-24.87
		c-19.98-0.63-39.99-0.41-59.99-0.39c-5.34,0-10.62,0.93-15.43,3.47c-8.54,4.52-12.74,12.15-12.92,21.35
		c-0.42,21.26-0.59,42.55-0.02,63.8c0.41,15.021,9.99,24.17,24.96,25.07c10.53,0.63,21.1,0.67,31.65,0.96c0-0.101,0-0.2,0.01-0.3
		c5.319,0,10.64,0.08,15.95-0.021c5.319-0.1,10.64-0.24,15.939-0.62c14.59-1.05,24.311-10.239,24.69-24.89
		C182.63,135.12,182.64,113.91,182.08,92.73z M125.41,160.42c-19.86-0.05-35.84-16.04-35.89-35.89c-0.04-19.93,16.1-36.05,36.02-36
		c19.87,0.05,35.84,16.02,35.88,35.89C161.47,144.34,145.32,160.48,125.41,160.42z M162.74,95.44c-4.61-0.05-8.24-3.75-8.23-8.38
		c0-4.71,3.76-8.41,8.49-8.35c4.59,0.05,8.25,3.77,8.25,8.38C171.24,91.79,167.47,95.49,162.74,95.44z"/>
	<path fill="#96aaff" fill-rule="evenodd" clip-rule="evenodd" d="M148.82,124.39c0.04,12.94-10.49,23.47-23.43,23.43
		c-12.82-0.04-23.27-10.54-23.26-23.37c0.02-12.84,10.48-23.31,23.32-23.32C138.29,101.12,148.78,111.55,148.82,124.39z"/>
</g>
</svg>
