<?xml version="1.0" encoding="utf-8"?>
<!-- Generator: Adobe Illustrator 16.0.0, SVG Export Plug-In . SVG Version: 6.00 Build 0)  -->
<!DOCTYPE svg PUBLIC "-//W3C//DTD SVG 1.1//EN" "http://www.w3.org/Graphics/SVG/1.1/DTD/svg11.dtd">
<svg version="1.1" id="Layer_1" xmlns="http://www.w3.org/2000/svg" xmlns:xlink="http://www.w3.org/1999/xlink" x="0px" y="0px"
	 width="250px" height="250px" viewBox="0 0 250 250" enable-background="new 0 0 250 250" xml:space="preserve">
<path  fill="#96aaff" fill-rule="evenodd" clip-rule="evenodd" d="M117.743,2.036c5.143,0,10.285,0,15.427,0c0.618,0.135,1.23,0.347,1.856,0.394
	c19.218,1.437,37.208,6.953,53.6,17.044c31.859,19.615,51.482,47.828,58.357,84.714c0.836,4.48,1.271,9.035,1.894,13.555
	c0,5.143,0,10.285,0,15.427c-0.197,1.583-0.418,3.162-0.589,4.747c-2.645,24.411-11.489,46.311-27.07,65.297
	c-19.375,23.611-44.162,38.274-74.267,43.752c-4.559,0.829-9.186,1.283-13.781,1.911c-5.143,0-10.285,0-15.427,0
	c-3.013-0.37-6.032-0.692-9.037-1.12c-22.768-3.238-43.222-11.915-60.997-26.531c-23.593-19.4-38.289-44.151-43.755-74.264
	c-0.829-4.563-1.288-9.192-1.918-13.792c0-5.143,0-10.285,0-15.427c0.354-2.937,0.659-5.881,1.072-8.81
	c3.469-24.573,13.223-46.324,29.69-64.908C51.989,22.366,75.864,8.879,104.433,3.898C108.844,3.129,113.305,2.649,117.743,2.036z
	 M73.382,138.349c1.414,4.428,3.587,7.945,6.52,10.99c5.227,5.426,11.719,8.21,19.838,8.811
	c-12.557,9.327-25.993,13.052-40.907,11.981c0.709,0.651,1.421,1.134,2.166,1.559c12.231,7.007,25.368,10.709,39.491,10.777
	c23.635,0.116,43.956-7.808,59.905-25.504c14.282-15.847,21.43-34.636,21.414-56.026c-0.001-1.988,0.707-3.081,2.104-4.396
	c3.67-3.455,7.059-7.209,10.531-10.87c0.381-0.402,0.586-0.969,0.843-1.41c-4.889,1.333-9.633,2.626-14.377,3.919
	c-0.118-0.213-0.235-0.427-0.354-0.641c5.313-3.68,9.214-8.386,11.2-14.227c-5.274,1.849-10.484,3.64-15.663,5.516
	c-1.424,0.515-2.332,0.101-3.394-0.89c-15.712-14.679-41.657-7.032-46.616,13.874c-0.994,4.186-0.724,8.669-1.054,13.245
	c-23.018-1.616-42.254-11.542-57.561-29.446c-3.115,5.367-4.214,10.888-3.689,16.706c0.778,8.622,4.971,15.404,11.824,20.676
	c-0.129,0.217-0.257,0.434-0.386,0.651c-3.869-1.085-7.739-2.17-11.578-3.247c-1.474,10.883,7.55,22.52,21.428,27.952
	C81.308,138.349,77.549,138.349,73.382,138.349z"/>
</svg>
