<svg id="Layer_1" data-name="Layer 1" xmlns="http://www.w3.org/2000/svg" viewBox="0 0 144 49"><defs><style>.cls-1,.cls-3{fill:#fff;}.cls-1{stroke:#6d6e71;stroke-miterlimit:10;stroke-width:0.55px;}.cls-2{fill:#1a0ba6;}.cls-4{fill:#262626;}</style></defs><rect class="cls-1" width="144" height="49" rx="6"/><rect class="cls-2" x="8.05" y="5.53" width="45.29" height="34.01" rx="4"/><path class="cls-3" d="M29,10.8a.58.58,0,0,0-.2-.49L26.45,8l-1-1L22,10.36a.34.34,0,0,0-.08.25c0,.64,0,1.28,0,1.92a1.08,1.08,0,0,0,0,.19l2.7-2.46v6.93h1.64V10.27L29,12.75C29,12.05,29,11.42,29,10.8Zm8.52,2.83c0-.54,0-1.07,0-1.68l-2.81,2.47V7.5H33.07v6.91L30.38,12a.45.45,0,0,0,0,.11q0,1,0,2.07a.41.41,0,0,0,.13.26L32.1,16l1.82,1.71c1.1-1.05,2.17-2.1,3.26-3.11A1.07,1.07,0,0,0,37.56,13.63Zm2.51,6.22a1.94,1.94,0,0,0-.13-.71,2,2,0,0,0-2-1.31c-5.3,0-10.61,0-15.92,0A2.11,2.11,0,0,0,19.91,20c0,2.64,0,5.28,0,7.93s0,5.38,0,8.07a2.39,2.39,0,0,0,.24,1A2,2,0,0,0,22,38.05h7.47c2.81,0,5.63,0,8.45,0A2.07,2.07,0,0,0,40.08,36C40.07,30.63,40.08,25.24,40.07,19.85ZM38.8,35.75a1.05,1.05,0,0,1-1,1H22.52a2.2,2.2,0,0,1-.58-.07,1,1,0,0,1-.69-.82,3.55,3.55,0,0,1,0-.46V20.46a1.14,1.14,0,0,1,1.3-1.31h15a2,2,0,0,1,.55.07,1,1,0,0,1,.72.83,2,2,0,0,1,0,.35v15C38.81,35.55,38.81,35.65,38.8,35.75Zm-3-11a1,1,0,0,0-.85-.39c-.55,0-1.1,0-1.65,0a1.18,1.18,0,0,0-1.08.52L30.07,27.5a.79.79,0,0,0,.2,1.2l2.82-3.41a1.8,1.8,0,0,1-.16,1.07c-.66,1.25-1.29,2.52-1.93,3.78-.05.09-.08.17-.14.29h2.62v4.31h1.39v-4.3H37.1L37,30.26c-.66-1.36-1.32-2.72-2-4.09a3.86,3.86,0,0,1-.14-.86l.1,0,2.88,3.42A.89.89,0,0,0,38,27.42Zm-1.65-1.11a1.18,1.18,0,0,0,1.25-1.23,1.13,1.13,0,0,0-1.26-1.25A1.12,1.12,0,0,0,33,22.43,1.18,1.18,0,0,0,34.17,23.64ZM28,24.41q-2.45,0-4.89,0a1,1,0,0,0-1,1c0,1.27,0,2.53,0,3.8a1.14,1.14,0,0,0,1.11,1V26h.57V34.5h1.53V28.92h.56v5.59h1.39V26h.54v4A1.1,1.1,0,0,0,29,28.88c0-1.15,0-2.31,0-3.46A.9.9,0,0,0,28,24.41Zm-2.6-.48A1.39,1.39,0,1,0,24,22.5,1.4,1.4,0,0,0,25.41,23.93Z"/><path class="cls-3" d="M40.07,19.85a1.94,1.94,0,0,0-.13-.71,2,2,0,0,0-2-1.31c-5.3,0-10.61,0-15.92,0A2.11,2.11,0,0,0,19.91,20c0,2.64,0,5.28,0,7.93s0,5.38,0,8.07a2.39,2.39,0,0,0,.24,1A2,2,0,0,0,22,38.05h7.47c2.81,0,5.63,0,8.45,0A2.07,2.07,0,0,0,40.08,36C40.07,30.63,40.08,25.24,40.07,19.85ZM38.8,35.75a1.05,1.05,0,0,1-1,1H22.52a2.2,2.2,0,0,1-.58-.07,1,1,0,0,1-.69-.82,3.55,3.55,0,0,1,0-.46V20.46a1.14,1.14,0,0,1,1.3-1.31h15a2,2,0,0,1,.55.07,1,1,0,0,1,.72.83,2,2,0,0,1,0,.35v15C38.81,35.55,38.81,35.65,38.8,35.75Z"/><path class="cls-3" d="M33.92,17.66,32.09,16l-1.61-1.53a.41.41,0,0,1-.13-.26q0-1,0-2.07a.36.36,0,0,1,0-.11l2.69,2.43V7.51h1.67v6.91L37.55,12c0,.61,0,1.14,0,1.68a1.07,1.07,0,0,1-.38.92C36.09,15.56,35,16.61,33.92,17.66Z"/><path class="cls-3" d="M24.61,17.19V10.26L21.9,12.72c0-.09,0-.14,0-.19,0-.64,0-1.28,0-1.92a.34.34,0,0,1,.08-.25L25.45,7l1,1,2.39,2.33a.61.61,0,0,1,.2.49c0,.62,0,1.25,0,1.94l-2.79-2.47v6.92Z"/><path class="cls-3" d="M29,28.88a1.1,1.1,0,0,1-1.14,1.18V26h-.54v8.48H25.89V28.92h-.56V34.5H23.8V26h-.57v4.11a1.14,1.14,0,0,1-1.11-1c0-1.27,0-2.53,0-3.8a1,1,0,0,1,1-1q2.44,0,4.89,0a.9.9,0,0,1,.95,1C29,26.57,29,27.73,29,28.88Z"/><path class="cls-3" d="M37.92,28.71,35,25.29l-.1,0a3.86,3.86,0,0,0,.14.86c.63,1.37,1.29,2.73,2,4.09l.07.18H34.87v4.3H33.48V30.43H30.86c.06-.12.09-.2.14-.29.64-1.26,1.27-2.53,1.93-3.78a1.8,1.8,0,0,0,.16-1.07L30.27,28.7a.79.79,0,0,1-.2-1.2l2.17-2.63a1.18,1.18,0,0,1,1.08-.52c.55,0,1.1,0,1.65,0a1,1,0,0,1,.85.39L38,27.42A.89.89,0,0,1,37.92,28.71Z"/><path class="cls-3" d="M26.83,22.58a1.4,1.4,0,1,1-1.38-1.42A1.4,1.4,0,0,1,26.83,22.58Z"/><path class="cls-3" d="M35.42,22.41a1.24,1.24,0,0,1-2.47,0,1.12,1.12,0,0,1,1.21-1.27A1.13,1.13,0,0,1,35.42,22.41Z"/><path class="cls-4" d="M62.27,23.91H58.39v3.18H62.9v1H57.21V19.1h5.63v1H58.39V23h3.88Z"/><path class="cls-4" d="M69.14,25.79a1.55,1.55,0,0,0-.09-.55,1.17,1.17,0,0,0-.34-.44,2.5,2.5,0,0,0-.66-.38,10.1,10.1,0,0,0-1-.36,7.58,7.58,0,0,1-1.2-.43,3.88,3.88,0,0,1-.92-.56,2.2,2.2,0,0,1-.58-.72,2,2,0,0,1-.21-.93,2.26,2.26,0,0,1,.22-1,2.33,2.33,0,0,1,.62-.78,2.94,2.94,0,0,1,1-.51A4.06,4.06,0,0,1,67.15,19a3.82,3.82,0,0,1,1.35.22,3.07,3.07,0,0,1,1,.61,2.46,2.46,0,0,1,.61.86,2.59,2.59,0,0,1,.21,1H69.12A2,2,0,0,0,69,21a1.54,1.54,0,0,0-.36-.55,1.59,1.59,0,0,0-.62-.36,3,3,0,0,0-1.69,0,1.51,1.51,0,0,0-.58.3,1.18,1.18,0,0,0-.34.46,1.4,1.4,0,0,0-.11.58,1.14,1.14,0,0,0,.12.52,1.44,1.44,0,0,0,.37.43,2.79,2.79,0,0,0,.65.36,7.48,7.48,0,0,0,1,.32,7.68,7.68,0,0,1,1.32.48,3.67,3.67,0,0,1,.91.59,2.07,2.07,0,0,1,.53.74,2.35,2.35,0,0,1,.18.94,2.1,2.1,0,0,1-.85,1.74,3.16,3.16,0,0,1-1,.49,4.61,4.61,0,0,1-1.28.17,4.56,4.56,0,0,1-.82-.08,4,4,0,0,1-.79-.23,3.13,3.13,0,0,1-.7-.38,2.62,2.62,0,0,1-.57-.53,2.36,2.36,0,0,1-.37-.68,2.39,2.39,0,0,1-.14-.82H65a1.62,1.62,0,0,0,.18.79,1.49,1.49,0,0,0,.49.54,2,2,0,0,0,.7.32,3.2,3.2,0,0,0,.83.1,2.34,2.34,0,0,0,1.43-.38A1.21,1.21,0,0,0,69.14,25.79Z"/><path class="cls-4" d="M78.43,25.21a4.1,4.1,0,0,1-.31,1.18,2.85,2.85,0,0,1-.66.94,2.82,2.82,0,0,1-1,.62,4,4,0,0,1-1.41.23,3.44,3.44,0,0,1-1.44-.3,3.11,3.11,0,0,1-1.1-.84,4.07,4.07,0,0,1-.71-1.3A5.69,5.69,0,0,1,71.53,24v-.9a5.37,5.37,0,0,1,.26-1.7,3.69,3.69,0,0,1,.72-1.31,3.15,3.15,0,0,1,1.13-.85,3.62,3.62,0,0,1,1.5-.29,3.73,3.73,0,0,1,1.34.22,2.76,2.76,0,0,1,1,.61,3,3,0,0,1,.65,1A4.2,4.2,0,0,1,78.43,22H77.24a3.53,3.53,0,0,0-.21-.85,1.81,1.81,0,0,0-.39-.64,1.58,1.58,0,0,0-.62-.4,2.32,2.32,0,0,0-.88-.14,2.2,2.2,0,0,0-1,.23,2.23,2.23,0,0,0-.76.64,2.93,2.93,0,0,0-.45,1,4.75,4.75,0,0,0-.16,1.29V24a5.48,5.48,0,0,0,.14,1.24,3.16,3.16,0,0,0,.42,1,2,2,0,0,0,1.75.93,3,3,0,0,0,1-.13,1.65,1.65,0,0,0,.64-.39,1.94,1.94,0,0,0,.4-.63,4.59,4.59,0,0,0,.21-.85Z"/><path class="cls-4" d="M85,25.72H81.23l-.84,2.33H79.17l3.42-8.95h1l3.42,9H85.84Zm-3.4-1h3l-1.52-4.18Z"/><path class="cls-4" d="M89.45,27.09h4.24v1H88.26V19.1h1.19Z"/><path class="cls-4" d="M100.1,25.72H96.35l-.85,2.33H94.29l3.42-8.95h1l3.43,9H101Zm-3.4-1h3l-1.53-4.18Z"/><path class="cls-4" d="M108.77,20.07h-2.88v8h-1.18v-8h-2.87v-1h6.93Z"/><path class="cls-4" d="M116.81,23.87a5.88,5.88,0,0,1-.26,1.8,4.1,4.1,0,0,1-.72,1.36,3.15,3.15,0,0,1-1.13.85,3.56,3.56,0,0,1-1.48.3,3.5,3.5,0,0,1-1.46-.3,3.28,3.28,0,0,1-1.14-.85,4.16,4.16,0,0,1-.75-1.36,5.88,5.88,0,0,1-.26-1.8V23.3a6,6,0,0,1,.26-1.81,4,4,0,0,1,.74-1.36,3.31,3.31,0,0,1,1.14-.86,3.49,3.49,0,0,1,1.46-.29,3.56,3.56,0,0,1,1.48.29,3.13,3.13,0,0,1,1.14.86,4,4,0,0,1,.72,1.36,6,6,0,0,1,.26,1.81Zm-1.17-.58a5.47,5.47,0,0,0-.17-1.42,3,3,0,0,0-.47-1,2,2,0,0,0-.77-.63,2.25,2.25,0,0,0-1-.22,2.19,2.19,0,0,0-1,.22,2,2,0,0,0-.77.63,3,3,0,0,0-.48,1,5.05,5.05,0,0,0-.18,1.42v.58a5.1,5.1,0,0,0,.18,1.42,3,3,0,0,0,.49,1,2.13,2.13,0,0,0,.77.64,2.33,2.33,0,0,0,1,.21,2.43,2.43,0,0,0,1-.21,2,2,0,0,0,.75-.64,3,3,0,0,0,.48-1,6,6,0,0,0,.16-1.42Z"/><path class="cls-4" d="M121.87,24.43h-2.11v3.62h-1.18V19.1h3a3.52,3.52,0,0,1,2.33.69,2.49,2.49,0,0,1,.81,2,2.41,2.41,0,0,1-.45,1.46,2.75,2.75,0,0,1-1.26.93l2.11,3.8v.07h-1.27Zm-2.11-1h1.82a2.38,2.38,0,0,0,.84-.14A1.61,1.61,0,0,0,123,23a1.47,1.47,0,0,0,.36-.53,1.8,1.8,0,0,0,.12-.66,1.94,1.94,0,0,0-.12-.7,1.4,1.4,0,0,0-.35-.55,1.72,1.72,0,0,0-.61-.35,2.88,2.88,0,0,0-.88-.12h-1.78Z"/></svg>