<?xml version="1.0" encoding="utf-8"?>
<!-- Generator: Adobe Illustrator 16.0.0, SVG Export Plug-In . SVG Version: 6.00 Build 0)  -->
<!DOCTYPE svg PUBLIC "-//W3C//DTD SVG 1.1//EN" "http://www.w3.org/Graphics/SVG/1.1/DTD/svg11.dtd">
<svg version="1.1" id="Layer_1" xmlns="http://www.w3.org/2000/svg" xmlns:xlink="http://www.w3.org/1999/xlink" x="0px" y="0px"
	 width="250px" height="250px" viewBox="0 0 250 250" enable-background="new 0 0 250 250" xml:space="preserve">
<g>
	<path fill="#96aaff" fill-rule="evenodd" clip-rule="evenodd" d="M248.988,118.252c0,4.824,0,9.648,0,14.473c-0.141,0.693-0.361,1.381-0.409,2.079
		c-1.201,17.229-5.76,33.55-14.097,48.641c-19.212,34.784-48.39,56.085-87.479,63.596c-4.711,0.904-9.517,1.311-14.279,1.948
		c-4.824,0-9.648,0-14.473,0c-0.621-0.136-1.236-0.354-1.863-0.396c-15.156-0.995-29.693-4.613-43.287-11.314
		c-37.879-18.672-61.062-48.77-69.166-90.299c-0.917-4.698-1.312-9.5-1.948-14.254c0-4.824,0-9.648,0-14.473
		c0.141-0.693,0.36-1.38,0.409-2.08c1.201-17.229,5.76-33.549,14.096-48.641c19.212-34.783,48.391-56.085,87.48-63.595
		c4.71-0.905,9.517-1.312,14.279-1.949c4.824,0,9.648,0,14.473,0c0.62,0.136,1.236,0.354,1.862,0.396
		c15.072,1,29.528,4.582,43.067,11.22c38.016,18.637,61.248,48.779,69.387,90.393C247.96,108.696,248.351,113.498,248.988,118.252z
		 M139.966,101.246c0-8.868-0.28-17.377,0.104-25.857c0.237-5.267,3.675-9.006,8.903-9.604c6.673-0.763,13.441-0.671,20.171-0.933
		c1.089-0.042,2.18-0.005,3.329-0.005c0-10.207,0-20.045,0-29.625c-10.598,0-21.08-0.684-31.441,0.148
		c-19.209,1.544-32.763,15.44-34.245,34.667c-0.721,9.354-0.419,18.785-0.577,28.182c-0.016,0.93-0.002,1.862-0.002,3.085
		c-9.432,0-18.543,0-27.65,0c0,10.843,0,21.385,0,32.243c9.322,0,18.426,0,27.724,0c0,27.69,0,55.064,0,82.489
		c11.158,0,22.115,0,33.257,0c0-27.54,0-54.917,0-82.598c10.665,0,21.147,0,31.749,0c0-10.859,0-21.417,0-32.193
		C160.72,101.246,150.303,101.246,139.966,101.246z"/>
</g>
</svg>
