<?xml version="1.0" encoding="UTF-8"?><svg id="a" xmlns="http://www.w3.org/2000/svg" viewBox="0 0 384.11 499.24"><defs><style>.b{fill:#600202;}</style></defs><path class="b" d="M380.09,231.34c-4.44,22.8-12.69,44.29-25.68,63.5-14.27,21.08-29.52,41.49-44.58,62.02-21.19,28.89-42.61,57.62-63.94,86.42-11.12,15.02-22.24,30.04-33.37,45.06-10.9,14.73-30.16,14.34-40.6-.07-9.62-13.26-19.51-26.33-29.25-39.51-19.47-26.36-38.93-52.72-58.37-79.11-16.39-22.26-33-44.37-49.04-66.87-17.41-24.43-28.24-51.68-32.85-81.36-.88-5.66-1.61-11.34-2.41-17.01v-25.39c.81-5.15,1.66-10.29,2.44-15.44,4.69-31.18,16.33-59.46,35-84.88,19.5-26.56,44.14-46.92,74-60.69C146.84,1.7,184-3.61,222.52,2.4c22.37,3.5,43.47,11.19,63.27,22.22,23.23,12.94,43.06,29.98,58.93,51.3,34.62,46.53,46.44,98.44,35.37,155.42Z"/></svg>