<svg xmlns="http://www.w3.org/2000/svg" width="14.177" height="24.816" viewBox="0 0 14.177 24.816">
  <g id="Icon_ionic-ios-walk" data-name="Icon ionic-ios-walk" transform="translate(259 270.75)">
    <path id="Path_4" data-name="Path 4" d="M13.048,24.035,9.293,26.743a1.117,1.117,0,0,0-.294.77.915.915,0,0,0,.26.692,1.061,1.061,0,0,0,.753.343,1.727,1.727,0,0,0,.886-.465l3.86-2.858a1.047,1.047,0,0,0,.316-.748l.5-2.907-2.531-2.586Z" transform="translate(-268 -276.554)" fill="#6051e3"/>
    <g id="Group_15" data-name="Group 15" transform="translate(-259 -270.75)">
      <path id="Path_5" data-name="Path 5" d="M20.823,4.316A2.066,2.066,0,1,1,18.758,2.25a2.066,2.066,0,0,1,2.066,2.066Z" transform="translate(-10.634 -2.25)" fill="#6051e3"/>
      <g id="Group_14" data-name="Group 14" transform="translate(0 5.316)">
        <path id="Path_6" data-name="Path 6" d="M21.333,27.342l-.842-6.5a1.032,1.032,0,0,0-.233-.526L17.1,16.5V9.881c0-.626-.349-.881-1.013-.881H14.04a.909.909,0,0,0-.426.127L9.847,10.883A1.678,1.678,0,0,0,9,12.472v3.616a1.014,1.014,0,1,0,2.027,0V12.865a.437.437,0,0,1,.244-.393l1.783-.908v4.17a.871.871,0,0,0,.255.62l5.117,5.228a.426.426,0,0,1,.122.249l.786,5.8a1,1,0,0,0,1,.869h.111A1.045,1.045,0,0,0,21.333,27.342Z" transform="translate(-9 -9)" fill="#6051e3"/>
        <path id="Path_7" data-name="Path 7" d="M25.188,14.9,19.927,9.577V12.49l3.832,3.882a1,1,0,0,0,1.434-.006.945.945,0,0,0,.3-.676A1.185,1.185,0,0,0,25.188,14.9Z" transform="translate(-11.321 -9.122)" fill="#6051e3"/>
      </g>
    </g>
  </g>
</svg>
