<?xml version="1.0" encoding="UTF-8"?><svg id="a" xmlns="http://www.w3.org/2000/svg" viewBox="0 0 384.11 499.24"><defs><style>.b{fill:#fff;}.c{fill:#600202;}</style></defs><path class="c" d="M0,204.42v-25.39c.81-5.15,1.66-10.29,2.44-15.44,4.7-31.17,16.34-59.46,35-84.88,19.5-26.56,44.14-46.92,74-60.69C146.84,1.69,184-3.61,222.52,2.41c22.38,3.5,43.47,11.19,63.27,22.21,23.23,12.94,43.07,29.98,58.93,51.31,34.62,46.53,46.45,98.44,35.37,155.42-4.43,22.8-12.68,44.29-25.68,63.5-14.26,21.08-29.51,41.49-44.57,62.02-21.2,28.89-42.61,57.62-63.94,86.42-11.12,15.02-22.25,30.04-33.37,45.06-10.9,14.73-30.16,14.34-40.61-.07-9.62-13.27-19.51-26.33-29.25-39.51-19.47-26.36-38.93-52.73-58.37-79.11-16.39-22.26-33-44.37-49.05-66.87-17.41-24.43-28.24-51.68-32.85-81.36-.88-5.66-1.61-11.34-2.42-17.01Zm221.02,.93c.87-.62,1.35-1.03,1.9-1.33,12.94-7.19,15.48-20.48,12.51-32.91-2.51-10.49-14.11-18.68-26.62-19.12-13.05-.46-26.13-.32-39.19-.53-2.63-.04-3.6,.92-3.6,3.59,.07,28.08,.08,56.16,0,84.23,0,2.79,1.13,3.53,3.66,3.47,5-.11,10-.17,14.99,.01,2.94,.11,4.1-.77,4.01-3.89-.2-7.56-.08-15.13-.08-22.69,0-1.72,0-3.44,0-5.4,2.76,0,4.83,.23,6.83-.05,3.39-.48,5.05,1.07,6.41,4,3.07,6.61,7.05,12.85,9.56,19.65,2.55,6.93,6.65,9.31,13.75,8.42,4.6-.58,9.33-.11,15.08-.11-6.74-13.09-12.97-25.17-19.23-37.33Zm-148.27,37.26c7.93,0,15.16,.07,22.39-.1,.73-.02,1.75-1.33,2.08-2.25,1.3-3.6,2.61-7.24,3.46-10.96,.66-2.88,2.16-3.62,4.86-3.56,6.14,.14,12.29,.04,18.44,.04q7.01,0,9.18,6.85,3.29,10.36,14.17,10.08c4.14-.1,8.28-.02,12.74-.02-.35-1.48-.43-2.1-.64-2.68-10.57-28.68-21.12-57.36-31.84-85.98-.42-1.13-2.34-2.34-3.62-2.41-4.85-.26-9.73,.14-14.58-.11-2.71-.14-3.84,.87-4.72,3.27-9.18,25.23-18.46,50.42-27.69,75.63-1.39,3.8-2.66,7.64-4.24,12.2Zm238.95-90.82h-62.43v90.6h62.41c0-4.65-.15-9,.05-13.33,.14-2.99-.82-4.04-3.91-4-10.64,.16-21.28-.07-31.91,.14-3.63,.07-5.12-.84-4.76-4.69,.35-3.69,.13-7.43,.11-11.15-.03-4.91-.05-4.91,5.03-4.91,7.82,0,15.64,.01,23.46,.01q5.79,0,5.78-5.86-.01-11.17-11.32-11.16c-7.53,0-15.06,0-22.93,0,0-4.91,.19-9.39-.06-13.84-.2-3.59,1.12-4.56,4.64-4.49,10.76,.22,21.53,.1,32.3,.07,1.56,0,3.56,.51,3.56-2.18-.01-4.98,0-9.96,0-15.23Zm-79.21,128.02c.45-.52,.59-.74,.79-.9,7.29-5.81,10-12.81,7.47-20.39-2.64-7.92-9.1-10.71-16.7-11.18-7.01-.43-14.06-.25-21.09-.49-2.94-.1-4,.87-3.97,3.96,.15,13.83,.06,27.66,.07,41.49,0,10.59,0,10.54,10.78,9.75,2.09-.15,3.02-.91,3.01-2.98-.02-3.97-.06-7.94,.08-11.91,.06-1.7-.98-4.1,2.1-4.48,2.62-.32,4.56,.08,5.78,2.98,1.99,4.7,4.43,9.22,6.79,13.76,.49,.93,1.42,2.27,2.2,2.31,4.37,.22,8.76,.11,13.94,.11-4.03-7.88-7.61-14.9-11.26-22.03Zm-97.29-.55c0,4.91,0,9.25,0,13.59,0,9.34,0,9.22,9.4,9.24,3.17,0,4.17-.95,4.14-4.16-.16-13.83-.05-27.67-.07-41.51-.01-10.04-.03-9.99-10.16-9.54-2.37,.1-3.45,.76-3.36,3.36,.18,4.99-.04,9.99,.09,14.99,.06,2.26-.6,3.3-3,3.24-4.09-.11-8.2-.09-12.29,0-2.27,.05-3.28-.85-3.2-3.16,.09-2.82,0-5.64,.01-8.45,.01-10.32,.02-10.23-10.2-10.01-2.79,.06-3.75,.91-3.72,3.79,.14,13.84,.08,27.67,.07,41.51-.01,10.22-.03,10.12,10.17,9.96,2.89-.04,3.8-1.08,3.72-3.84-.14-5.25-.03-10.5-.04-15.76,0-1.79,.11-3.31,2.59-3.26,5.1,.1,10.2,.03,15.85,.03Zm31.8-160.91c.66,3.66,.95,7.79,2.17,11.63,2.95,9.3,9.6,14.71,19.23,15.81,9.14,1.04,17.04-1.81,22.27-9.78,5.38-8.18,5.67-17.37,3.99-26.63-2.1-11.56-10.92-19.23-22.21-19.74-11.5-.51-20.59,6.1-23.78,17.66-.94,3.41-1.09,7.03-1.67,11.04Zm54.3-7.3c0,4.87-.01,9.74,0,14.61,.03,11.27,5.92,18.6,17.07,19.97,14.54,1.79,26.88-4.11,26.32-22.03-.25-7.81-.04-15.64-.03-23.46,0-9.92,0-9.79-9.93-9.85-3.29-.02-4.14,1.16-4.09,4.25,.15,10.38,.08,20.77,.03,31.15,0,1.64-.06,3.38-.59,4.9-1.26,3.58-4.63,5.09-9.17,4.41-3.41-.5-5.53-2.91-5.6-7.14-.16-9.1-.07-18.2-.08-27.3,0-10.45,0-10.34-10.39-10.27-2.99,.02-3.68,1.09-3.59,3.84,.18,5.63,.05,11.28,.05,16.92Zm-27.85,180.04h-23.3c0-2.8,.27-5.13-.06-7.37-.6-4.16,1.33-5.11,5.01-4.82,3.06,.24,6.15,.05,9.22,.05q6.67,0,6.5-6.77c0-.13-.02-.26,0-.38,.28-2.52-.91-3.41-3.35-3.37-4.74,.09-9.49,.08-14.23-.05-.99-.03-2.79-.69-2.82-1.15-.18-2.91-.3-5.92,.36-8.71,.15-.64,3.44-.71,5.29-.74,5.96-.09,11.92-.03,18.29-.03,0-2.67-.15-4.71,.04-6.72,.3-3.22-1.08-4.23-4.19-4.18-9.87,.13-19.74,.13-29.61,0-3.04-.04-4.35,.81-4.33,4.09,.12,15.64,.12,31.29,0,46.93-.02,3.16,1.04,4.28,4.2,4.22,8.46-.16,16.92-.05,25.38-.06,9.32-.01,9.62-.37,8.25-9.75-.02-.12-.12-.22-.65-1.18Zm93.24-33.36c0-2.75-.09-5.03,.02-7.3,.13-2.62-.95-3.62-3.6-3.6-10.38,.1-20.75,.08-31.13,.03-2.19,0-3.31,.69-3.31,3.06,.04,16.4-.02,32.81,.15,49.21,0,.96,1.65,2.7,2.56,2.72,10.88,.19,21.78,.19,32.66,.02,.88-.01,2.34-1.47,2.5-2.43,1.25-7.48,.51-8.25-7.08-8.25-5.57,0-11.15,0-16.74,0v-12.05c5.23,0,10.2,0,15.17,0q5,0,5.02-5.1c0-.64-.07-1.29,0-1.92,.37-2.93-1.02-3.8-3.78-3.71-4.61,.14-9.23,.12-13.83-.08-.96-.04-2.61-1.04-2.68-1.73-.31-2.85-.13-5.74-.13-8.86h24.2ZM117.86,90.39c3.63,7.36,6.38,13.99,10.04,20.07,5.8,9.63,8.88,19.7,7.39,30.97-.4,3.01,.82,3.98,3.88,3.97,10.22-.02,10.17,.1,10.24-10.2,.03-4.8-.59-9.59,1.98-14.2,3.98-7.15,7.47-14.57,11.14-21.89,1.34-2.67,2.58-5.39,4.17-8.75-2.96,0-4.99,0-7.02,0-7.74,.04-7.7,.06-10.62,7.12-2.07,4.99-4.27,9.93-6.79,15.77-3.1-7.31-5.71-13.67-8.54-19.93-.54-1.19-1.91-2.7-3.01-2.8-3.91-.34-7.87-.13-12.87-.13Z"/><path class="b" d="M221.02,205.34c6.26,12.15,12.49,24.24,19.23,37.33-5.75,0-10.48-.47-15.08,.11-7.1,.9-11.2-1.49-13.75-8.42-2.5-6.8-6.49-13.04-9.56-19.65-1.36-2.93-3.03-4.47-6.41-4-2,.28-4.08,.05-6.83,.05,0,1.95,0,3.67,0,5.4,0,7.56-.12,15.13,.08,22.69,.08,3.12-1.08,4-4.01,3.89-4.99-.18-10-.12-14.99-.01-2.53,.06-3.67-.69-3.66-3.47,.07-28.08,.06-56.16,0-84.23,0-2.67,.97-3.63,3.6-3.59,13.06,.21,26.14,.08,39.19,.53,12.51,.44,24.11,8.63,26.62,19.12,2.97,12.43,.43,25.73-12.51,32.91-.54,.3-1.02,.71-1.9,1.33Zm-32.39-11.94c4.57,0,8.51,0,12.46,0,1.02,0,2.06,.03,3.06-.13,6.89-1.11,10.41-6.03,9.81-13.62-.52-6.64-4.8-10.48-11.75-10.5-3.59-.01-7.18-.11-10.75,.16-.99,.07-2.69,1.3-2.71,2.03-.21,7.15-.12,14.3-.12,22.07Z"/><path class="b" d="M72.75,242.6c1.58-4.55,2.85-8.4,4.24-12.2,9.23-25.21,18.51-50.4,27.69-75.63,.87-2.4,2.01-3.41,4.72-3.27,4.85,.25,9.73-.15,14.58,.11,1.28,.07,3.19,1.27,3.62,2.41,10.71,28.62,21.27,57.3,31.84,85.98,.21,.58,.3,1.21,.64,2.68-4.46,0-8.61-.08-12.74,.02q-10.88,.25-14.17-10.08-2.18-6.85-9.18-6.85c-6.15,0-12.29,.1-18.44-.04-2.7-.06-4.21,.68-4.86,3.56-.85,3.73-2.16,7.36-3.46,10.96-.33,.91-1.35,2.23-2.08,2.25-7.23,.17-14.46,.1-22.39,.1Zm44.1-62.72l-.94,.06c-2.82,9.26-5.64,18.52-8.52,27.97h18.12c-2.98-9.63-5.82-18.83-8.66-28.03Z"/><path class="b" d="M311.7,151.78c0,5.27,0,10.25,0,15.23,0,2.69-1.99,2.18-3.56,2.18-10.77,.03-21.54,.15-32.3-.07-3.51-.07-4.84,.9-4.64,4.49,.25,4.45,.06,8.93,.06,13.84,7.87,0,15.4,0,22.93,0q11.31-.01,11.32,11.16,0,5.85-5.78,5.86c-7.82,0-15.64,0-23.46-.01-5.08,0-5.06,0-5.03,4.91,.02,3.72,.24,7.46-.11,11.15-.36,3.85,1.13,4.77,4.76,4.69,10.63-.22,21.28,.02,31.91-.14,3.09-.05,4.05,1,3.91,4-.2,4.33-.05,8.67-.05,13.33h-62.41v-90.6h62.43Z"/><path class="b" d="M232.49,279.8c3.65,7.14,7.23,14.16,11.26,22.03-5.18,0-9.57,.12-13.94-.11-.78-.04-1.72-1.38-2.2-2.31-2.36-4.54-4.8-9.05-6.79-13.76-1.23-2.9-3.17-3.3-5.78-2.98-3.07,.38-2.04,2.78-2.1,4.48-.14,3.97-.1,7.94-.08,11.91,.01,2.08-.92,2.83-3.01,2.98-10.78,.79-10.78,.84-10.78-9.75,0-13.83,.09-27.66-.07-41.49-.03-3.09,1.03-4.06,3.97-3.96,7.03,.24,14.08,.06,21.09,.49,7.6,.47,14.06,3.26,16.7,11.18,2.53,7.59-.18,14.59-7.47,20.39-.19,.15-.33,.38-.79,.9Zm-19.63-15.28c-.06,9.04,.02,7.34,6.13,7.43,6.09,.09,8.67-2.14,8.61-7.1-.07-5.41-2.68-7.15-10.71-7.11q-4.06,.02-4.03,6.77Z"/><path class="b" d="M135.2,279.25c-5.65,0-10.75,.07-15.85-.03-2.48-.05-2.6,1.48-2.59,3.26,0,5.25-.1,10.51,.04,15.76,.07,2.76-.83,3.8-3.72,3.84-10.2,.16-10.18,.26-10.17-9.96,.02-13.84,.07-27.67-.07-41.51-.03-2.88,.93-3.73,3.72-3.79,10.22-.22,10.21-.31,10.2,10.01,0,2.82,.08,5.64-.01,8.45-.08,2.32,.93,3.21,3.2,3.16,4.1-.08,8.2-.1,12.29,0,2.4,.07,3.06-.98,3-3.24-.13-4.99,.09-10-.09-14.99-.09-2.6,.99-3.26,3.36-3.36,10.13-.45,10.15-.5,10.16,9.54,.02,13.84-.09,27.67,.07,41.51,.04,3.21-.97,4.17-4.14,4.16-9.41-.02-9.41,.1-9.4-9.24,0-4.34,0-8.68,0-13.59Z"/><path class="b" d="M167,118.34c.58-4.01,.73-7.63,1.67-11.04,3.19-11.56,12.28-18.18,23.78-17.66,11.29,.5,20.11,8.17,22.21,19.74,1.68,9.27,1.38,18.45-3.99,26.63-5.23,7.97-13.13,10.82-22.27,9.78-9.63-1.1-16.28-6.51-19.23-15.81-1.22-3.84-1.51-7.97-2.17-11.63Zm35.16-.05c-.98-4.46-1.54-8.49-2.79-12.29-1.18-3.57-4.03-5.37-7.98-5.35-4.07,.03-7.08,1.87-8.27,5.6-2.52,7.96-2.9,16.04,.45,23.92,1.28,3.03,3.7,4.71,7.15,4.88,3.72,.18,6.77-1.17,8.08-4.57,1.52-3.95,2.3-8.19,3.36-12.19Z"/><path class="b" d="M221.3,111.05c0-5.64,.12-11.28-.05-16.92-.09-2.75,.6-3.82,3.59-3.84,10.38-.07,10.38-.18,10.39,10.27,0,9.1-.08,18.2,.08,27.3,.07,4.23,2.19,6.64,5.6,7.14,4.54,.67,7.91-.83,9.17-4.41,.53-1.52,.58-3.26,.59-4.9,.05-10.38,.11-20.77-.03-31.15-.04-3.09,.81-4.27,4.09-4.25,9.93,.06,9.93-.07,9.93,9.85,0,7.82-.21,15.65,.03,23.46,.56,17.92-11.78,23.82-26.32,22.03-11.14-1.37-17.03-8.71-17.07-19.97-.01-4.87,0-9.74,0-14.61Z"/><path class="b" d="M193.45,291.08c.53,.95,.63,1.06,.65,1.18,1.37,9.38,1.07,9.74-8.25,9.75-8.46,0-16.92-.1-25.38,.06-3.17,.06-4.23-1.06-4.2-4.22,.12-15.64,.12-31.29,0-46.93-.03-3.29,1.29-4.13,4.33-4.09,9.87,.13,19.74,.14,29.61,0,3.11-.04,4.5,.96,4.19,4.18-.19,2.01-.04,4.06-.04,6.72-6.37,0-12.33-.05-18.29,.03-1.85,.03-5.14,.1-5.29,.74-.66,2.79-.54,5.8-.36,8.71,.03,.46,1.83,1.12,2.82,1.15,4.74,.13,9.48,.14,14.23,.05,2.44-.05,3.63,.84,3.35,3.37-.01,.13,0,.26,0,.38q.17,6.76-6.5,6.77c-3.08,0-6.17,.2-9.22-.05-3.68-.29-5.61,.66-5.01,4.82,.32,2.24,.06,4.57,.06,7.37h23.3Z"/><path class="b" d="M286.69,257.72h-24.2c0,3.12-.18,6.02,.13,8.86,.07,.69,1.72,1.69,2.68,1.73,4.6,.19,9.22,.22,13.83,.08,2.76-.09,4.16,.78,3.78,3.71-.08,.63,0,1.28,0,1.92q-.02,5.09-5.02,5.1c-4.97,0-9.93,0-15.17,0v12.05c5.59,0,11.17,0,16.74,0,7.6,0,8.34,.77,7.08,8.25-.16,.96-1.62,2.42-2.5,2.43-10.89,.16-21.78,.17-32.66-.02-.91-.02-2.55-1.76-2.56-2.72-.16-16.4-.1-32.81-.15-49.21,0-2.37,1.12-3.07,3.31-3.06,10.38,.05,20.75,.06,31.13-.03,2.65-.02,3.73,.98,3.6,3.6-.11,2.27-.02,4.55-.02,7.3Z"/><path class="b" d="M117.86,90.39c4.99,0,8.95-.21,12.87,.13,1.1,.1,2.47,1.61,3.01,2.8,2.83,6.26,5.44,12.62,8.54,19.93,2.52-5.84,4.72-10.78,6.79-15.77,2.92-7.06,2.88-7.08,10.62-7.12,2.03-.01,4.06,0,7.02,0-1.6,3.36-2.84,6.08-4.17,8.75-3.67,7.32-7.16,14.74-11.14,21.89-2.57,4.61-1.94,9.4-1.98,14.2-.07,10.3-.02,10.19-10.24,10.2-3.06,0-4.28-.97-3.88-3.97,1.49-11.27-1.6-21.34-7.39-30.97-3.66-6.08-6.41-12.72-10.04-20.07Z"/><path class="c" d="M188.63,193.41c0-7.76-.08-14.92,.12-22.07,.02-.73,1.72-1.95,2.71-2.03,3.57-.27,7.16-.17,10.75-.16,6.95,.02,11.23,3.86,11.75,10.5,.6,7.58-2.93,12.5-9.81,13.62-1,.16-2.04,.13-3.06,.13-3.95,.01-7.89,0-12.46,0Z"/><path class="c" d="M116.85,179.88c2.84,9.2,5.68,18.4,8.66,28.03h-18.12c2.88-9.45,5.7-18.71,8.52-27.97l.94-.06Z"/><path class="c" d="M212.86,264.52q-.03-6.75,4.03-6.77c8.03-.04,10.64,1.69,10.71,7.11,.06,4.96-2.52,7.19-8.61,7.1-6.11-.09-6.19,1.61-6.13-7.43Z"/><path class="c" d="M199.41,106.12c2.54,7.79,2.39,16.34-.48,24.02-.04,.12-.09,.23-.13,.35-1.31,3.39-4.36,4.74-8.08,4.57-3.45-.16-5.87-1.85-7.15-4.88-3.34-7.88-2.97-15.96-.45-23.92,1.18-3.73,4.2-5.57,8.27-5.6,3.94-.03,6.8,1.78,7.98,5.35l.04,.11Z"/></svg>